<svg xmlns="http://www.w3.org/2000/svg" xmlns:xlink="http://www.w3.org/1999/xlink" width="1480" zoomAndPan="magnify" viewBox="10 480 1480 540" height="540" preserveAspectRatio="xMidYMid meet" version="1.0"><defs><clipPath id="27e4be5d15"><path d="M 283 553 L 1481 553 L 1481 1006.449219 L 283 1006.449219 Z M 283 553 " clip-rule="nonzero"/></clipPath><clipPath id="d731ce3c3c"><path d="M 19 493.449219 L 506 493.449219 L 506 799 L 19 799 Z M 19 493.449219 " clip-rule="nonzero"/></clipPath></defs><g clip-path="url(#27e4be5d15)"><path fill="#000000" d="M 1201.234375 616.070312 C 1183.628906 612.582031 1165.941406 610.71875 1148.171875 608.894531 C 1117.835938 605.800781 1087.417969 606.117188 1057.117188 607.347656 C 1040.976562 607.980469 1024.796875 609.410156 1008.65625 611.667969 C 996.359375 613.414062 983.949219 614.761719 971.691406 616.742188 C 953.054688 619.796875 934.574219 623.601562 916.171875 627.921875 C 901.972656 631.253906 887.816406 634.820312 873.816406 638.746094 C 858.03125 643.148438 842.40625 648.0625 826.859375 653.214844 C 813.375 657.695312 800.089844 662.808594 786.765625 667.765625 C 765.984375 675.457031 745.5625 684.058594 725.375 693.179688 C 706.816406 701.582031 688.375 710.183594 670.210938 719.421875 C 643.359375 733.058594 616.988281 747.609375 591.132812 763.070312 C 558.292969 782.65625 526.328125 803.628906 495.238281 825.949219 C 458.832031 852.113281 424.050781 880.300781 390.894531 910.429688 C 359.207031 939.210938 327.878906 968.390625 296.390625 997.371094 C 292.980469 1000.503906 289.332031 1003.4375 285.960938 1006.371094 C 282.628906 1004.902344 283.023438 1003 284.332031 1000.898438 C 298.96875 976.515625 315.542969 953.5625 333.628906 931.679688 C 355.203125 905.59375 379.117188 881.765625 403.746094 858.613281 C 427.699219 836.097656 453.121094 815.203125 479.253906 795.222656 C 500.195312 779.207031 521.53125 763.785156 543.421875 749.035156 C 566.621094 733.417969 590.257812 718.472656 614.292969 704.160156 C 649.230469 683.347656 684.964844 664.078125 721.566406 646.398438 C 750.996094 632.203125 780.855469 618.882812 811.394531 607.308594 C 838.71875 596.960938 866.359375 587.40625 894.597656 579.636719 C 916.050781 573.730469 937.667969 568.574219 959.476562 564.730469 C 989.894531 559.378906 1020.511719 555.375 1051.484375 554.027344 C 1078.851562 552.835938 1106.175781 553.152344 1133.421875 554.820312 C 1148.332031 555.730469 1163.28125 557.710938 1178.113281 560.089844 C 1200.441406 563.660156 1222.570312 568.097656 1244.304688 574.203125 C 1270.558594 581.578125 1296.21875 590.816406 1321.242188 601.757812 C 1351.304688 614.878906 1379.9375 630.5 1407.140625 648.738281 C 1430.5 664.394531 1454.335938 679.539062 1474.046875 699.957031 C 1481.660156 707.847656 1481.859375 715.894531 1475.394531 724.855469 C 1467.34375 735.992188 1456.199219 743.882812 1445.691406 752.328125 C 1415.828125 776.3125 1384.140625 797.679688 1350.46875 816.035156 C 1337.78125 822.933594 1324.851562 829.4375 1310.773438 833.042969 C 1303.15625 834.984375 1295.664062 835.027344 1288.484375 830.148438 C 1263.378906 812.945312 1244.066406 790.664062 1229.273438 764.300781 C 1216.820312 742.097656 1207.820312 718.589844 1202.824219 693.613281 C 1198.378906 671.292969 1197.546875 648.816406 1200.125 626.179688 C 1200.441406 623.046875 1202.78125 620.152344 1201.234375 616.070312 Z M 1208.453125 616.941406 C 1208.453125 618.328125 1208.375 619.003906 1208.453125 619.675781 C 1210.359375 636.882812 1213.292969 653.851562 1217.140625 670.738281 C 1223.246094 697.5 1232.488281 722.871094 1247.121094 746.222656 C 1260.207031 767.113281 1276.785156 784.757812 1296.058594 799.980469 C 1298.914062 802.238281 1301.613281 802.121094 1304.625 800.734375 C 1321.996094 792.726562 1338.96875 783.925781 1355.191406 773.734375 C 1373.75 762.078125 1391 748.71875 1407.421875 734.289062 C 1414.835938 727.789062 1421.894531 720.890625 1429.746094 713.59375 C 1363.320312 663.644531 1289.476562 633.039062 1208.453125 616.941406 Z M 1208.453125 616.941406 " fill-opacity="1" fill-rule="nonzero"/></g><path fill="#000000" d="M 1137.542969 852.589844 C 1132.667969 858.019531 1126.359375 861.585938 1120.570312 865.710938 C 1107.878906 874.671875 1094.554688 882.597656 1081.191406 890.449219 C 1075.875 893.582031 1070.246094 895.167969 1064.296875 895.683594 C 1040.382812 897.78125 1016.46875 899.726562 992.472656 901.113281 C 968.402344 902.5 944.367188 902.582031 920.335938 902.183594 C 889.046875 901.707031 857.875 899.410156 826.703125 896.394531 C 803.5 894.136719 780.382812 891.320312 757.339844 887.871094 C 726.605469 883.3125 696.148438 877.328125 665.847656 870.429688 C 633.25 862.976562 601.046875 854.09375 569.359375 843.511719 C 554.128906 838.394531 539.140625 832.527344 524.070312 826.976562 C 522.203125 826.304688 520.539062 825.195312 519.230469 822.816406 C 524.824219 817.1875 531.800781 813.417969 538.265625 808.980469 C 549.09375 801.488281 560.316406 794.507812 571.222656 787.175781 C 573.960938 785.351562 576.65625 785.273438 579.472656 786.261719 C 609.613281 796.808594 640.347656 805.570312 671.160156 813.816406 C 691.347656 819.207031 711.691406 824.085938 732.15625 828.601562 C 751.351562 832.84375 770.585938 836.929688 789.9375 840.378906 C 806.4375 843.3125 822.972656 846.085938 839.628906 848.226562 C 858.070312 850.566406 876.511719 852.707031 894.992188 854.730469 C 939.332031 859.605469 983.75 860.714844 1028.246094 859.644531 C 1047.878906 859.167969 1067.46875 857.78125 1087.058594 856.117188 C 1101.574219 854.886719 1116.011719 852.46875 1130.484375 850.605469 C 1132.984375 850.25 1135.523438 849.613281 1137.542969 852.589844 Z M 1137.542969 852.589844 " fill-opacity="1" fill-rule="nonzero"/><g clip-path="url(#d731ce3c3c)"><path fill="#000000" d="M 19.96875 493.449219 C 28.257812 497.691406 36.03125 502.882812 43.566406 508.234375 C 72.242188 528.652344 100.675781 549.464844 130.140625 568.851562 C 158.21875 587.328125 186.773438 605.007812 215.726562 622.054688 C 252.964844 643.9375 290.957031 664.394531 329.625 683.582031 C 360.835938 699.085938 392.324219 714.03125 424.527344 727.390625 C 432.339844 730.640625 439.753906 734.804688 447.925781 737.222656 C 451.136719 738.175781 452.644531 741.582031 454.984375 743.683594 C 457.046875 743.605469 455.300781 741.863281 456.492188 741.109375 C 472.234375 747.410156 488.21875 753.792969 505.785156 760.8125 C 488.695312 773.855469 472.910156 785.90625 456.808594 798.195312 C 440.984375 790.425781 424.40625 784.320312 408.664062 774.410156 C 401.207031 772.863281 394.109375 768.105469 386.652344 764.339844 C 341.203125 741.625 296.824219 717.042969 253.519531 690.480469 C 233.808594 678.390625 214.613281 665.546875 195.378906 652.742188 C 160.597656 629.589844 127.285156 604.53125 95.71875 577.21875 C 72.4375 557.078125 50.585938 535.472656 31.3125 511.449219 C 27.703125 506.929688 24.214844 502.289062 20.765625 497.691406 C 19.96875 496.582031 18.660156 495.511719 19.96875 493.449219 Z M 19.96875 493.449219 " fill-opacity="1" fill-rule="nonzero"/></g><path fill="#000000" d="M 966.101562 951.34375 C 972.011719 946.785156 978.632812 944.800781 984.742188 941.988281 C 1026.898438 922.601562 1069.253906 903.609375 1108.753906 879.03125 C 1143.613281 857.347656 1174.941406 831.378906 1201.832031 800.257812 C 1204.648438 796.96875 1207.421875 793.636719 1210.160156 790.347656 C 1212.101562 789.671875 1213.214844 790.941406 1214.71875 791.933594 C 1211.152344 808.066406 1205.242188 823.292969 1197.152344 837.640625 C 1179.027344 869.832031 1152.574219 893.621094 1121.085938 912.175781 C 1096.140625 926.84375 1069.371094 936.953125 1041.414062 944.007812 C 1018.410156 949.796875 994.972656 952.730469 971.296875 954.078125 C 969.511719 954.15625 969.511719 954.078125 966.101562 951.34375 Z M 966.101562 951.34375 " fill-opacity="1" fill-rule="nonzero"/><path fill="#000000" d="M 1010.71875 546.808594 C 998.382812 548.476562 986.804688 549.980469 975.261719 551.648438 C 971.734375 552.164062 968.125 552.71875 964.714844 553.75 C 949.722656 558.226562 936.832031 550.894531 923.46875 546.492188 C 905.34375 540.507812 887.300781 534.242188 869.097656 528.375 C 845.105469 520.644531 820.992188 513.152344 796.957031 505.539062 C 795.609375 505.105469 794.140625 504.746094 793.546875 502.765625 C 795.132812 500.464844 797.832031 500.703125 800.171875 500.464844 C 823.648438 498.324219 846.96875 498.761719 870.445312 501.734375 C 889.519531 504.152344 908.28125 507.679688 926.71875 512.636719 C 951.984375 519.414062 976.769531 527.898438 1000.207031 539.792969 C 1003.65625 541.539062 1007.980469 541.933594 1010.71875 546.808594 Z M 1010.71875 546.808594 " fill-opacity="1" fill-rule="nonzero"/><path fill="#000000" d="M 1276.390625 831.894531 C 1272.027344 835.859375 1266.59375 837.761719 1261.636719 840.296875 C 1242.042969 850.367188 1221.582031 858.296875 1200.839844 865.710938 C 1197.113281 867.058594 1193.304688 868.167969 1189.535156 869.359375 C 1187.316406 870.070312 1185.652344 869.4375 1184.578125 866.898438 C 1190.011719 858.21875 1195.445312 849.378906 1201.078125 840.617188 C 1202.585938 838.277344 1205.320312 838.316406 1207.859375 837.960938 C 1221.222656 836.058594 1234.550781 833.796875 1247.914062 832.050781 C 1255.964844 831.023438 1264.09375 830.664062 1272.183594 830.070312 C 1273.652344 829.953125 1275.082031 830.148438 1276.390625 831.894531 Z M 1276.390625 831.894531 " fill-opacity="1" fill-rule="nonzero"/><path fill="#000000" d="M 1077.699219 618.84375 C 1079.046875 616.226562 1080.675781 616.546875 1082.023438 616.546875 C 1090.90625 616.503906 1099.75 616.585938 1108.632812 616.503906 C 1111.964844 616.464844 1114.703125 617.8125 1116.84375 620.113281 C 1131.121094 635.496094 1143.730469 652.183594 1155.789062 669.3125 C 1156.460938 670.261719 1157.375 671.332031 1156.34375 673.433594 C 1130.605469 654.367188 1104.191406 636.40625 1077.699219 618.84375 Z M 1077.699219 618.84375 " fill-opacity="1" fill-rule="nonzero"/></svg>