<svg xmlns="http://www.w3.org/2000/svg" xmlns:xlink="http://www.w3.org/1999/xlink" width="2000" zoomAndPan="magnify" viewBox="0 0 1500 1499.999933" height="2000" preserveAspectRatio="xMidYMid meet" version="1.0"><defs><g/><clipPath id="442c84a41c"><path d="M 383 392 L 1323 392 L 1323 748.578125 L 383 748.578125 Z M 383 392 " clip-rule="nonzero"/></clipPath><clipPath id="8ce6d722d9"><path d="M 176 345.828125 L 559 345.828125 L 559 586 L 176 586 Z M 176 345.828125 " clip-rule="nonzero"/></clipPath><clipPath id="780b5938de"><rect x="0" width="885" y="0" height="255"/></clipPath></defs><g clip-path="url(#442c84a41c)"><path fill="#000000" d="M 1103.65625 442.097656 C 1089.851562 439.359375 1075.980469 437.894531 1062.046875 436.464844 C 1038.257812 434.035156 1014.40625 434.285156 990.648438 435.25 C 977.988281 435.746094 965.300781 436.867188 952.644531 438.640625 C 943.003906 440.011719 933.269531 441.070312 923.660156 442.625 C 909.046875 445.023438 894.554688 448.011719 880.125 451.402344 C 868.992188 454.015625 857.886719 456.820312 846.910156 459.898438 C 834.535156 463.355469 822.28125 467.214844 810.089844 471.261719 C 799.515625 474.777344 789.097656 478.792969 778.648438 482.683594 C 762.355469 488.722656 746.339844 495.476562 730.511719 502.632812 C 715.957031 509.230469 701.496094 515.984375 687.253906 523.238281 C 666.199219 533.945312 645.519531 545.367188 625.242188 557.507812 C 599.492188 572.882812 574.429688 589.347656 550.046875 606.871094 C 521.5 627.410156 494.226562 649.539062 468.226562 673.195312 C 443.378906 695.792969 418.8125 718.699219 394.121094 741.453125 C 391.445312 743.910156 388.585938 746.214844 385.941406 748.515625 C 383.328125 747.363281 383.640625 745.871094 384.667969 744.222656 C 396.140625 725.078125 409.140625 707.058594 423.320312 689.878906 C 440.238281 669.398438 458.992188 650.691406 478.304688 632.515625 C 497.085938 614.835938 517.019531 598.433594 537.515625 582.746094 C 553.933594 570.171875 570.664062 558.066406 587.832031 546.488281 C 606.023438 534.226562 624.558594 522.492188 643.402344 511.253906 C 670.800781 494.914062 698.820312 479.789062 727.523438 465.90625 C 750.597656 454.765625 774.015625 444.304688 797.960938 435.21875 C 819.390625 427.09375 841.0625 419.59375 863.207031 413.492188 C 880.03125 408.855469 896.980469 404.808594 914.082031 401.789062 C 937.933594 397.589844 961.941406 394.445312 986.230469 393.386719 C 1007.6875 392.453125 1029.117188 392.703125 1050.480469 394.007812 C 1062.171875 394.726562 1073.898438 396.28125 1085.527344 398.148438 C 1103.035156 400.949219 1120.386719 404.4375 1137.429688 409.230469 C 1158.015625 415.019531 1178.136719 422.269531 1197.761719 430.859375 C 1221.332031 441.164062 1243.785156 453.425781 1265.121094 467.742188 C 1283.4375 480.039062 1302.125 491.925781 1317.582031 507.957031 C 1323.554688 514.148438 1323.710938 520.46875 1318.640625 527.5 C 1312.328125 536.246094 1303.589844 542.441406 1295.347656 549.070312 C 1271.929688 567.902344 1247.082031 584.675781 1220.679688 599.089844 C 1210.730469 604.503906 1200.589844 609.609375 1189.550781 612.441406 C 1183.582031 613.964844 1177.703125 613.996094 1172.074219 610.167969 C 1152.390625 596.660156 1137.242188 579.167969 1125.644531 558.46875 C 1115.878906 541.042969 1108.820312 522.585938 1104.902344 502.976562 C 1101.417969 485.453125 1100.765625 467.804688 1102.785156 450.035156 C 1103.035156 447.574219 1104.871094 445.300781 1103.65625 442.097656 Z M 1109.316406 442.78125 C 1109.316406 443.871094 1109.253906 444.398438 1109.316406 444.929688 C 1110.808594 458.4375 1113.113281 471.757812 1116.128906 485.015625 C 1120.917969 506.027344 1128.164062 525.945312 1139.636719 544.277344 C 1149.902344 560.679688 1162.898438 574.53125 1178.015625 586.484375 C 1180.253906 588.257812 1182.367188 588.164062 1184.730469 587.074219 C 1198.351562 580.785156 1211.660156 573.878906 1224.382812 565.878906 C 1238.933594 556.726562 1252.464844 546.238281 1265.335938 534.910156 C 1271.152344 529.804688 1276.6875 524.390625 1282.847656 518.664062 C 1230.757812 479.445312 1172.851562 455.417969 1109.316406 442.78125 Z M 1109.316406 442.78125 " fill-opacity="1" fill-rule="nonzero"/></g><path fill="#000000" d="M 1053.714844 627.785156 C 1049.890625 632.050781 1044.945312 634.851562 1040.402344 638.085938 C 1030.453125 645.121094 1020.003906 651.347656 1009.523438 657.507812 C 1005.355469 659.96875 1000.941406 661.210938 996.277344 661.617188 C 977.523438 663.265625 958.769531 664.792969 939.957031 665.882812 C 921.078125 666.96875 902.234375 667.03125 883.390625 666.722656 C 858.851562 666.347656 834.410156 664.542969 809.964844 662.175781 C 791.773438 660.402344 773.644531 658.191406 755.574219 655.484375 C 731.472656 651.90625 707.589844 647.207031 683.832031 641.789062 C 658.269531 635.9375 633.015625 628.96875 608.167969 620.65625 C 596.226562 616.640625 584.472656 612.035156 572.65625 607.679688 C 571.195312 607.148438 569.886719 606.277344 568.859375 604.410156 C 573.246094 599.992188 578.71875 597.035156 583.789062 593.546875 C 592.277344 587.664062 601.078125 582.1875 609.632812 576.429688 C 611.777344 574.996094 613.890625 574.933594 616.097656 575.714844 C 639.734375 583.992188 663.835938 590.871094 688 597.34375 C 703.828125 601.578125 719.78125 605.40625 735.828125 608.953125 C 750.878906 612.285156 765.960938 615.492188 781.136719 618.199219 C 794.074219 620.5 807.042969 622.679688 820.105469 624.359375 C 834.566406 626.199219 849.027344 627.878906 863.515625 629.464844 C 898.285156 633.292969 933.113281 634.164062 968.007812 633.324219 C 983.402344 632.953125 998.761719 631.863281 1014.125 630.554688 C 1025.507812 629.589844 1036.828125 627.691406 1048.179688 626.230469 C 1050.136719 625.949219 1052.128906 625.449219 1053.714844 627.785156 Z M 1053.714844 627.785156 " fill-opacity="1" fill-rule="nonzero"/><g clip-path="url(#8ce6d722d9)"><path fill="#000000" d="M 177.367188 345.828125 C 183.863281 349.160156 189.960938 353.234375 195.867188 357.4375 C 218.351562 373.46875 240.648438 389.808594 263.757812 405.027344 C 285.773438 419.53125 308.164062 433.414062 330.867188 446.796875 C 360.066406 463.976562 389.859375 480.039062 420.179688 495.101562 C 444.65625 507.269531 469.347656 519.003906 494.597656 529.492188 C 500.726562 532.046875 506.539062 535.3125 512.945312 537.210938 C 515.464844 537.960938 516.648438 540.636719 518.480469 542.285156 C 520.097656 542.222656 518.730469 540.855469 519.664062 540.261719 C 532.011719 545.210938 544.542969 550.222656 558.320312 555.730469 C 544.914062 565.972656 532.539062 575.433594 519.914062 585.082031 C 507.503906 578.980469 494.503906 574.1875 482.160156 566.40625 C 476.3125 565.195312 470.746094 561.457031 464.898438 558.5 C 429.261719 540.667969 394.460938 521.371094 360.503906 500.515625 C 345.046875 491.023438 329.996094 480.941406 314.914062 470.886719 C 287.640625 452.710938 261.515625 433.039062 236.761719 411.59375 C 218.507812 395.785156 201.375 378.820312 186.257812 359.960938 C 183.429688 356.410156 180.691406 352.769531 177.988281 349.160156 C 177.367188 348.289062 176.339844 347.445312 177.367188 345.828125 Z M 177.367188 345.828125 " fill-opacity="1" fill-rule="nonzero"/></g><path fill="#000000" d="M 919.277344 705.316406 C 923.910156 701.738281 929.101562 700.179688 933.890625 697.96875 C 966.949219 682.75 1000.164062 667.84375 1031.136719 648.542969 C 1058.472656 631.519531 1083.039062 611.132812 1104.125 586.699219 C 1106.332031 584.117188 1108.507812 581.503906 1110.65625 578.917969 C 1112.179688 578.390625 1113.050781 579.386719 1114.230469 580.164062 C 1111.433594 592.832031 1106.796875 604.785156 1100.453125 616.050781 C 1086.242188 641.324219 1065.5 660 1040.808594 674.566406 C 1021.246094 686.082031 1000.257812 694.015625 978.332031 699.558594 C 960.296875 704.101562 941.914062 706.40625 923.351562 707.464844 C 921.949219 707.527344 921.949219 707.464844 919.277344 705.316406 Z M 919.277344 705.316406 " fill-opacity="1" fill-rule="nonzero"/><path fill="#000000" d="M 954.261719 387.722656 C 944.589844 389.03125 935.507812 390.210938 926.460938 391.519531 C 923.691406 391.925781 920.863281 392.359375 918.1875 393.167969 C 906.433594 396.6875 896.324219 390.929688 885.847656 387.472656 C 871.632812 382.773438 857.484375 377.855469 843.210938 373.25 C 824.394531 367.179688 805.488281 361.296875 786.640625 355.320312 C 785.585938 354.980469 784.433594 354.699219 783.96875 353.144531 C 785.210938 351.335938 787.328125 351.523438 789.160156 351.335938 C 807.570312 349.65625 825.855469 350 844.265625 352.332031 C 859.226562 354.230469 873.933594 357.003906 888.394531 360.894531 C 908.207031 366.214844 927.640625 372.875 946.019531 382.214844 C 948.726562 383.582031 952.117188 383.894531 954.261719 387.722656 Z M 954.261719 387.722656 " fill-opacity="1" fill-rule="nonzero"/><path fill="#000000" d="M 1162.589844 611.539062 C 1159.167969 614.648438 1154.90625 616.144531 1151.019531 618.136719 C 1135.65625 626.042969 1119.609375 632.265625 1103.347656 638.085938 C 1100.421875 639.144531 1097.4375 640.015625 1094.484375 640.949219 C 1092.742188 641.511719 1091.4375 641.011719 1090.597656 639.019531 C 1094.855469 632.203125 1099.117188 625.265625 1103.535156 618.386719 C 1104.714844 616.550781 1106.859375 616.578125 1108.851562 616.300781 C 1119.332031 614.804688 1129.78125 613.03125 1140.261719 611.664062 C 1146.574219 610.851562 1152.949219 610.574219 1159.292969 610.105469 C 1160.441406 610.011719 1161.5625 610.167969 1162.589844 611.539062 Z M 1162.589844 611.539062 " fill-opacity="1" fill-rule="nonzero"/><path fill="#000000" d="M 1006.785156 444.273438 C 1007.84375 442.222656 1009.121094 442.46875 1010.175781 442.46875 C 1017.140625 442.4375 1024.078125 442.5 1031.042969 442.4375 C 1033.65625 442.40625 1035.800781 443.464844 1037.480469 445.269531 C 1048.675781 457.347656 1058.566406 470.449219 1068.019531 483.898438 C 1068.546875 484.644531 1069.261719 485.484375 1068.453125 487.132812 C 1048.273438 472.164062 1027.558594 458.0625 1006.785156 444.273438 Z M 1006.785156 444.273438 " fill-opacity="1" fill-rule="nonzero"/><g transform="matrix(1, 0, 0, 1, 341, 805)"><g clip-path="url(#780b5938de)"><g fill="#000000" fill-opacity="1"><g transform="translate(0.471237, 192.815852)"><g><path d="M 116.203125 0 L 97.71875 0 L 48.4375 -65.546875 L 34.296875 -52.96875 L 34.296875 0 L 18.578125 0 L 18.578125 -135.15625 L 34.296875 -135.15625 L 34.296875 -68.125 L 95.59375 -135.15625 L 114.171875 -135.15625 L 59.8125 -76.453125 Z M 116.203125 0 "/></g></g></g><g fill="#000000" fill-opacity="1"><g transform="translate(181.213744, 192.815852)"><g><path d="M 120.640625 -135.15625 L 120.640625 -47.703125 C 120.640625 -32.296875 115.984375 -20.1875 106.671875 -11.375 C 97.367188 -2.5625 84.582031 1.84375 68.3125 1.84375 C 52.039062 1.84375 39.453125 -2.59375 30.546875 -11.46875 C 21.640625 -20.34375 17.1875 -32.546875 17.1875 -48.078125 L 17.1875 -135.15625 L 32.90625 -135.15625 L 32.90625 -46.96875 C 32.90625 -35.6875 35.988281 -27.023438 42.15625 -20.984375 C 48.320312 -14.941406 57.378906 -11.921875 69.328125 -11.921875 C 80.734375 -11.921875 89.515625 -14.957031 95.671875 -21.03125 C 101.835938 -27.101562 104.921875 -35.804688 104.921875 -47.140625 L 104.921875 -135.15625 Z M 120.640625 -135.15625 "/></g></g></g><g fill="#000000" fill-opacity="1"><g transform="translate(383.583208, 192.815852)"><g><path d="M 18.578125 0 L 18.578125 -135.15625 L 34.296875 -135.15625 L 34.296875 -14.234375 L 93.921875 -14.234375 L 93.921875 0 Z M 18.578125 0 "/></g></g></g><g fill="#000000" fill-opacity="1"><g transform="translate(546.395666, 192.815852)"><g><path d="M 18.578125 0 L 18.578125 -135.15625 L 34.296875 -135.15625 L 34.296875 -14.234375 L 93.921875 -14.234375 L 93.921875 0 Z M 18.578125 0 "/></g></g></g><g fill="#000000" fill-opacity="1"><g transform="translate(709.208125, 192.815852)"><g><path d="M 66.09375 0 L 51.125 0 L 51.125 -96.328125 C 51.125 -104.335938 51.367188 -111.914062 51.859375 -119.0625 C 50.566406 -117.769531 49.117188 -116.414062 47.515625 -115 C 45.910156 -113.582031 38.578125 -107.570312 25.515625 -96.96875 L 17.375 -107.515625 L 53.15625 -135.15625 L 66.09375 -135.15625 Z M 66.09375 0 "/></g></g></g></g></g><g fill="#000000" fill-opacity="1"><g transform="translate(631.959945, 1061.560425)"><g/></g></g><g fill="#000000" fill-opacity="1"><g transform="translate(667.104469, 1061.560425)"><g><path d="M 15.15625 -13.75 L 24.078125 -13.75 L 24.078125 -0.984375 C 22.679688 -0.546875 21.265625 -0.210938 19.828125 0.015625 C 18.398438 0.242188 16.738281 0.359375 14.84375 0.359375 C 10.875 0.359375 7.78125 -0.820312 5.5625 -3.1875 C 3.351562 -5.550781 2.25 -8.863281 2.25 -13.125 C 2.25 -15.851562 2.796875 -18.242188 3.890625 -20.296875 C 4.984375 -22.347656 6.554688 -23.914062 8.609375 -25 C 10.671875 -26.082031 13.085938 -26.625 15.859375 -26.625 C 18.648438 -26.625 21.253906 -26.109375 23.671875 -25.078125 L 22.5 -22.390625 C 20.125 -23.390625 17.84375 -23.890625 15.65625 -23.890625 C 12.457031 -23.890625 9.957031 -22.9375 8.15625 -21.03125 C 6.363281 -19.132812 5.46875 -16.5 5.46875 -13.125 C 5.46875 -9.582031 6.332031 -6.894531 8.0625 -5.0625 C 9.789062 -3.226562 12.332031 -2.3125 15.6875 -2.3125 C 17.507812 -2.3125 19.285156 -2.519531 21.015625 -2.9375 L 21.015625 -11.015625 L 15.15625 -11.015625 Z M 15.15625 -13.75 "/></g></g></g><g fill="#000000" fill-opacity="1"><g transform="translate(719.459422, 1061.560425)"><g><path d="M 26.390625 -13.15625 C 26.390625 -8.957031 25.328125 -5.65625 23.203125 -3.25 C 21.078125 -0.84375 18.125 0.359375 14.34375 0.359375 C 10.476562 0.359375 7.492188 -0.820312 5.390625 -3.1875 C 3.296875 -5.550781 2.25 -8.882812 2.25 -13.1875 C 2.25 -17.46875 3.300781 -20.78125 5.40625 -23.125 C 7.507812 -25.476562 10.5 -26.65625 14.375 -26.65625 C 18.144531 -26.65625 21.085938 -25.457031 23.203125 -23.0625 C 25.328125 -20.675781 26.390625 -17.375 26.390625 -13.15625 Z M 5.46875 -13.15625 C 5.46875 -9.601562 6.222656 -6.90625 7.734375 -5.0625 C 9.253906 -3.226562 11.457031 -2.3125 14.34375 -2.3125 C 17.25 -2.3125 19.441406 -3.226562 20.921875 -5.0625 C 22.410156 -6.894531 23.15625 -9.59375 23.15625 -13.15625 C 23.15625 -16.6875 22.414062 -19.363281 20.9375 -21.1875 C 19.457031 -23.019531 17.269531 -23.9375 14.375 -23.9375 C 11.46875 -23.9375 9.253906 -23.015625 7.734375 -21.171875 C 6.222656 -19.335938 5.46875 -16.664062 5.46875 -13.15625 Z M 5.46875 -13.15625 "/></g></g></g><g fill="#000000" fill-opacity="1"><g transform="translate(773.681181, 1061.560425)"><g/></g></g><g fill="#000000" fill-opacity="1"><g transform="translate(808.822025, 1061.560425)"><g><path d="M 15.15625 -13.75 L 24.078125 -13.75 L 24.078125 -0.984375 C 22.679688 -0.546875 21.265625 -0.210938 19.828125 0.015625 C 18.398438 0.242188 16.738281 0.359375 14.84375 0.359375 C 10.875 0.359375 7.78125 -0.820312 5.5625 -3.1875 C 3.351562 -5.550781 2.25 -8.863281 2.25 -13.125 C 2.25 -15.851562 2.796875 -18.242188 3.890625 -20.296875 C 4.984375 -22.347656 6.554688 -23.914062 8.609375 -25 C 10.671875 -26.082031 13.085938 -26.625 15.859375 -26.625 C 18.648438 -26.625 21.253906 -26.109375 23.671875 -25.078125 L 22.5 -22.390625 C 20.125 -23.390625 17.84375 -23.890625 15.65625 -23.890625 C 12.457031 -23.890625 9.957031 -22.9375 8.15625 -21.03125 C 6.363281 -19.132812 5.46875 -16.5 5.46875 -13.125 C 5.46875 -9.582031 6.332031 -6.894531 8.0625 -5.0625 C 9.789062 -3.226562 12.332031 -2.3125 15.6875 -2.3125 C 17.507812 -2.3125 19.285156 -2.519531 21.015625 -2.9375 L 21.015625 -11.015625 L 15.15625 -11.015625 Z M 15.15625 -13.75 "/></g></g></g><g fill="#000000" fill-opacity="1"><g transform="translate(861.176978, 1061.560425)"><g><path d="M 18.234375 0 L 3.609375 0 L 3.609375 -26.25 L 18.234375 -26.25 L 18.234375 -23.53125 L 6.65625 -23.53125 L 6.65625 -15.078125 L 17.546875 -15.078125 L 17.546875 -12.390625 L 6.65625 -12.390625 L 6.65625 -2.734375 L 18.234375 -2.734375 Z M 18.234375 0 "/></g></g></g><g fill="#000000" fill-opacity="1"><g transform="translate(907.213511, 1061.560425)"><g><path d="M 11.6875 0 L 8.640625 0 L 8.640625 -23.53125 L 0.328125 -23.53125 L 0.328125 -26.25 L 20 -26.25 L 20 -23.53125 L 11.6875 -23.53125 Z M 11.6875 0 "/></g></g></g><g fill="#000000" fill-opacity="1"><g transform="translate(953.142333, 1061.560425)"><g/></g></g><g fill="#000000" fill-opacity="1"><g transform="translate(988.283199, 1061.560425)"><g><path d="M 26.390625 -13.15625 C 26.390625 -8.957031 25.328125 -5.65625 23.203125 -3.25 C 21.078125 -0.84375 18.125 0.359375 14.34375 0.359375 C 10.476562 0.359375 7.492188 -0.820312 5.390625 -3.1875 C 3.296875 -5.550781 2.25 -8.882812 2.25 -13.1875 C 2.25 -17.46875 3.300781 -20.78125 5.40625 -23.125 C 7.507812 -25.476562 10.5 -26.65625 14.375 -26.65625 C 18.144531 -26.65625 21.085938 -25.457031 23.203125 -23.0625 C 25.328125 -20.675781 26.390625 -17.375 26.390625 -13.15625 Z M 5.46875 -13.15625 C 5.46875 -9.601562 6.222656 -6.90625 7.734375 -5.0625 C 9.253906 -3.226562 11.457031 -2.3125 14.34375 -2.3125 C 17.25 -2.3125 19.441406 -3.226562 20.921875 -5.0625 C 22.410156 -6.894531 23.15625 -9.59375 23.15625 -13.15625 C 23.15625 -16.6875 22.414062 -19.363281 20.9375 -21.1875 C 19.457031 -23.019531 17.269531 -23.9375 14.375 -23.9375 C 11.46875 -23.9375 9.253906 -23.015625 7.734375 -21.171875 C 6.222656 -19.335938 5.46875 -16.664062 5.46875 -13.15625 Z M 5.46875 -13.15625 "/></g></g></g><g fill="#000000" fill-opacity="1"><g transform="translate(1042.504935, 1061.560425)"><g><path d="M 24.109375 0 L 20.625 0 L 6.28125 -22.03125 L 6.140625 -22.03125 C 6.328125 -19.445312 6.421875 -17.078125 6.421875 -14.921875 L 6.421875 0 L 3.609375 0 L 3.609375 -26.25 L 7.0625 -26.25 L 21.359375 -4.3125 L 21.5 -4.3125 C 21.476562 -4.632812 21.425781 -5.671875 21.34375 -7.421875 C 21.257812 -9.171875 21.226562 -10.425781 21.25 -11.1875 L 21.25 -26.25 L 24.109375 -26.25 Z M 24.109375 0 "/></g></g></g><g fill="#000000" fill-opacity="1"><g transform="translate(1095.811235, 1061.560425)"><g><path d="M 18.234375 0 L 3.609375 0 L 3.609375 -26.25 L 18.234375 -26.25 L 18.234375 -23.53125 L 6.65625 -23.53125 L 6.65625 -15.078125 L 17.546875 -15.078125 L 17.546875 -12.390625 L 6.65625 -12.390625 L 6.65625 -2.734375 L 18.234375 -2.734375 Z M 18.234375 0 "/></g></g></g></svg>